<svg xmlns="http://www.w3.org/2000/svg" viewBox="0 0 36.29 48.92"><defs><style>.cls-1{fill:none;}.cls-1,.cls-2,.cls-3{stroke:#1d1d1b;stroke-miterlimit:10;}.cls-1,.cls-2{stroke-width:0.5px;}.cls-2,.cls-3{fill:#fff;}</style></defs><title>Element 1</title><g id="Ebene_2" data-name="Ebene 2"><g id="Ebene_2-2" data-name="Ebene 2"><line class="cls-1" x1="17.5" y1="25.17" x2="32.67" y2="16.67"/><line class="cls-1" x1="11.83" y1="10.67" x2="17.25" y2="24.92"/><line class="cls-1" x1="18.58" y1="10" x2="17.5" y2="25.17"/><line class="cls-1" x1="24.42" y1="10.17" x2="17.5" y2="25.17"/><line class="cls-1" x1="28.21" y1="13.42" x2="17.5" y2="25.17"/><line class="cls-1" x1="32.92" y1="10.42" x2="17.83" y2="25.17"/><line class="cls-1" x1="29.58" y1="6.38" x2="17.75" y2="24.25"/><line class="cls-1" x1="23.83" y1="3.5" x2="17.75" y2="24.25"/><line class="cls-1" x1="18.25" y1="3.17" x2="17.75" y2="24.25"/><line class="cls-1" x1="14.25" y1="4.42" x2="17.58" y2="23.83"/><line class="cls-1" x1="9.83" y1="5.92" x2="17.33" y2="24"/><line class="cls-1" x1="6.58" y1="7.92" x2="17.33" y2="24"/><line class="cls-1" x1="7.75" y1="14.17" x2="17.75" y2="24.25"/><line class="cls-1" x1="2.5" y1="13.33" x2="17.75" y2="24.25"/><ellipse class="cls-2" cx="6.29" cy="7.9" rx="3" ry="3.92" transform="translate(-2.37 2.71) rotate(-20.54)"/><ellipse class="cls-2" cx="9.92" cy="6.13" rx="2" ry="3.38"/><ellipse class="cls-2" cx="14.29" cy="5.46" rx="2.54" ry="4.46"/><ellipse class="cls-2" cx="3.13" cy="13.33" rx="2.88" ry="3.92"/><ellipse class="cls-2" cx="8.46" cy="14.29" rx="3.13" ry="3.79"/><ellipse class="cls-2" cx="18.63" cy="4.21" rx="2.71" ry="3.96"/><ellipse class="cls-2" cx="19.2" cy="10.02" rx="3.84" ry="4.38" transform="translate(-0.87 1.88) rotate(-5.49)"/><ellipse class="cls-2" cx="12.02" cy="10.63" rx="4.46" ry="3.72" transform="translate(-1.95 18.52) rotate(-70.95)"/><line class="cls-3" x1="17.5" y1="48.92" x2="17.42" y2="24"/><ellipse class="cls-2" cx="24.25" cy="4.29" rx="3.5" ry="3.46"/><ellipse class="cls-2" cx="29.58" cy="6.38" rx="2.67" ry="3.21"/><ellipse class="cls-2" cx="24.06" cy="9.92" rx="4.44" ry="3" transform="translate(4.68 27.29) rotate(-64.27)"/><ellipse class="cls-2" cx="28.21" cy="13.42" rx="4.33" ry="3.04" transform="translate(11.29 39.67) rotate(-82.64)"/><ellipse class="cls-2" cx="32.8" cy="10.68" rx="3.75" ry="3.11" transform="translate(8.73 35.39) rotate(-63.78)"/><ellipse class="cls-2" cx="32.46" cy="16.54" rx="4.04" ry="3.21" transform="translate(3.82 39.06) rotate(-65.19)"/></g></g></svg>