<svg xmlns="http://www.w3.org/2000/svg" viewBox="0 0 67 26.92"><defs><style>.cls-1{fill:#fff;stroke:#1d1d1b;stroke-miterlimit:10;stroke-width:0.75px;}</style></defs><title>Wolke</title><g id="Ebene_2" data-name="Ebene 2"><g id="Ebene_4" data-name="Ebene 4"><path class="cls-1" d="M66.63,7.13a3.06,3.06,0,0,0-3.12-3h-.14a4.19,4.19,0,0,0-3.95-2.51,4.63,4.63,0,0,0-.69.06A13.36,13.36,0,0,0,53,.54c-4.2,0-7.62,1.51-7.78,3.41H45C44.63,2.15,42.6.79,40.13.79A5.26,5.26,0,0,0,35.59,3c-1.14-1.53-4.31-2.63-8-2.63A14.14,14.14,0,0,0,21,1.77a2.5,2.5,0,0,0-1.76-.69A2.11,2.11,0,0,0,17,3a1.54,1.54,0,0,0,0,.3A7.15,7.15,0,0,0,15,3a7,7,0,0,0-3.56,1,3.31,3.31,0,0,0-1.65-.46c-2.14,0-3.87,2.09-3.87,4.67,0,.07,0,.14,0,.22A3.11,3.11,0,0,0,4.42,8c-2.23,0-4,2.46-4,5.5,0,2.66,1.39,4.88,3.24,5.39a3.94,3.94,0,0,0,4,3,4.22,4.22,0,0,0,2.95-1.17l.77.23a2.34,2.34,0,0,0-.09.61c0,2.07,2.76,3.75,6.17,3.75,2.54,0,4.73-.94,5.67-2.28v0c0,1.93,2.26,3.5,5,3.5,2.3,0,4.22-1.08,4.83-2.54.78,1.39,2.75,2.37,5,2.37,2.79,0,5.09-1.45,5.38-3.31a14.48,14.48,0,0,0,4.91.81c4.1,0,7.52-1.51,8.4-3.52a4.68,4.68,0,0,0,3.48,1.52,4.44,4.44,0,0,0,4.58-4.29,4,4,0,0,0-.36-1.67,4.06,4.06,0,0,0,1.94-3.5,4.14,4.14,0,0,0-1.07-2.79A3,3,0,0,0,66.63,7.13Z"/></g></g></svg>